<?xml version="1.0" encoding="UTF-8"?>
<svg id="Layer_1" xmlns="http://www.w3.org/2000/svg" version="1.1" xmlns:xlink="http://www.w3.org/1999/xlink" viewBox="0 0 24 24">
  <!-- Generator: Adobe Illustrator 29.7.1, SVG Export Plug-In . SVG Version: 2.1.1 Build 8)  -->
  <defs>
    <style>
      .st0 {
        fill: #fff;
      }

      .st1 {
        fill: url(#linear-gradient);
      }
    </style>
    <linearGradient id="linear-gradient" x1="12" y1="19.9" x2="12" y2="1.5" gradientUnits="userSpaceOnUse">
      <stop offset="0" stop-color="red"/>
      <stop offset="1" stop-color="#ff6d67"/>
    </linearGradient>
  </defs>
  <rect class="st1" x="0" y="0" width="24" height="24" rx="3.6" ry="3.6"/>
  <g>
    <path class="st0" d="M13.89,2.87c2.17.52,1.95,3.75-.32,3.79s-2.65-3.11-.51-3.79h.83Z"/>
    <path class="st0" d="M13.68,7.6c.42.4.97,2.82,1.34,3.46.6.38,2.54.83,2.65,1.56.12.82-.56.97-1.22.76-.32-.11-2.26-.97-2.47-1.14-.41-.34-.35-.99-.74-1.34l-.46,2.53c.43,1,1.31,1.89,1.81,2.82.46.86,1.13,2.61,1.43,3.56.05.15.15.36.17.49.08.73-.9,1.13-1.36.52-.64-.86-.93-2.79-1.54-3.72s-2.16-1.93-2.86-2.87c-.26-.34-.35-.73-.41-1.15l.82-3.56c-.09-.07-1.59.65-1.75.79-.49.43-1.23,2.2-1.77,2.39-.7.25-1.2-.38-.96-1.05.05-.16,1.64-2.48,1.76-2.58.26-.2,3.05-1.57,3.35-1.64.42-.09,1.9-.11,2.2.17Z"/>
    <path class="st0" d="M10.01,14.69s.04.18.13.28c.19.2,1.24,1.14,1.21,1.29-.26.46-.38,1.04-.64,1.49-.28.49-1.96,2.78-2.33,3.12-.66.6-1.45.08-1.29-.73.49-1.01,1.77-2.1,2.21-3.05.31-.65.3-1.63.52-2.34l.18-.06Z"/>
  </g>
</svg>